<svg xmlns="http://www.w3.org/2000/svg" xmlns:xlink="http://www.w3.org/1999/xlink" viewBox="6 6 88 88" fill="#598C00">
  <defs>
    <g id="t">
      <rect x="8" y="8" width="26" height="26" rx="8"/>
      <rect x="37" y="8" width="26" height="26" rx="3"/>
      <path d="M66 8h2c13.25 0 24 10.75 24 24v2H66z"/>
      <path d="M66 37h26v2c0 13.25-10.75 24-24 24h-2z"/>
      <rect x="37" y="37" width="26" height="26" rx="3"/>
      <path d="M34 63H8v-2c0-13.25 10.75-24 24-24h2z"/>
      <path d="M34 92h-2C18.75 92 8 81.25 8 68v-2h26z"/>
      <rect x="37" y="66" width="26" height="26" rx="3"/>
      <rect x="66" y="66" width="26" height="26" rx="8"/>
    </g>
    <mask id="m">
      <rect width="100" height="100" fill="#fff"/>
      <circle cx="64.5" cy="35.5" r="5.5" fill="#000"/>
      <circle cx="35.5" cy="64.5" r="5.5" fill="#000"/>
    </mask>
  </defs>
  <!-- White lines: the tiles grown by half the 3-unit gap, so the gaps and the
       two notches read white on any tab colour, with no box around the logo. -->
  <use href="#t" xlink:href="#t" fill="#fff" stroke="#fff" stroke-width="3" stroke-linejoin="round"/>
  <circle cx="64.5" cy="35.5" r="5.5" fill="#fff"/>
  <circle cx="35.5" cy="64.5" r="5.5" fill="#fff"/>
  <use href="#t" xlink:href="#t" mask="url(#m)"/>
</svg>
